<?xml version="1.0" encoding="utf-8"?>
<!-- Generator: Adobe Illustrator 26.5.0, SVG Export Plug-In . SVG Version: 6.00 Build 0)  -->
<svg version="1.1" id="Layer_1" xmlns="http://www.w3.org/2000/svg" xmlns:xlink="http://www.w3.org/1999/xlink" x="0px" y="0px"
	 viewBox="0 0 512 512" style="enable-background:new 0 0 512 512;" xml:space="preserve">
<style type="text/css">
	.st0{fill:#D1E187;}
	.st1{fill-rule:evenodd;clip-rule:evenodd;fill:#FFFFFF;}
	.st2{fill-rule:evenodd;clip-rule:evenodd;fill:#8BC53F;}
	.st3{fill-rule:evenodd;clip-rule:evenodd;fill:#81211C;}
	.st4{fill-rule:evenodd;clip-rule:evenodd;fill:#EB2026;}
	.st5{fill:#8BC53F;}
</style>
<g id="XMLID_1_">
	<path id="XMLID_5_" class="st0" d="M217.18,135.48c0-4.35-3.51-7.86-7.86-7.86l0,0c-4.35,0-7.86,3.51-7.86,7.86v14.59
		c-0.7-0.14-1.4-0.14-2.1-0.14H131.2c-9.82,0-17.81,8-17.81,17.81v198.91c0,9.82,8,17.81,17.81,17.81h68.17
		c9.82,0,17.81-8,17.81-17.81V167.61c0-1.4-0.14-2.81-0.42-4.07c0.28-0.84,0.42-1.68,0.42-2.67V135.48z M207.79,263.69
		c0,12.76-10.24,23-23,23h-38.72c-12.76,0-23-10.24-23-23v-64.81c0-12.76,10.24-23,23-23h38.72c12.76,0,23,10.24,23,23V263.69z"/>
	<path id="XMLID_6_" class="st1" d="M145.64,175.88h39.28c12.48,0,22.72,10.24,22.72,22.72v65.37c0,12.48-10.24,22.72-22.72,22.72
		h-39.28c-12.48,0-22.72-10.24-22.72-22.72v-65.37C122.92,186.12,133.16,175.88,145.64,175.88z"/>
	<path id="XMLID_9_" class="st2" d="M446.67,287.96h23.29v-58.07h19.36v58.07h22.58v-82.9c-0.42-16.83-13.47-27.35-31.7-27.49
		c-20.9-0.14-32.82,9.68-33.67,26.51v83.88H446.67z M469.96,199.17c0.7-6.17,2.81-8.7,9.54-9.4c6.87,0.14,9.4,4.21,9.82,10.24v16.83
		h-19.36V199.17z"/>
	<path id="XMLID_10_" class="st3" d="M141.02,220.21c3.93,9.12,9.12,13.33,15.57,13.47c-9.96,7.43-20.76,12.06-32.12,14.87
		c-7.15-0.42-13.89-2.24-20.48-4.07C120.68,241.25,133.16,233.26,141.02,220.21z"/>
	<path id="XMLID_11_" class="st4" d="M184.64,196.64l46.85,23.71c-23.85,31.42-64.11,32.26-107.03,28.2
		C153.22,241.53,173,224,184.64,196.64z"/>
	<path id="XMLID_12_" class="st5" d="M96.69,187.67c-7.57-13.75-21.46-14.17-39.42-5.61c-10.8-9.68-21.04-5.47-34.65,0.42
		l-0.28-7.01H-0.1V285.3h23v-98.61c0.98,0,1.82-0.14,2.67-0.14c6.87,0,12.48,5.61,12.48,12.48v86.27H61.2v-98.61
		c0.42,0,0.98,0,1.4,0c3.65-0.14,7.15,1.26,9.68,3.79c2.67,2.52,4.07,6.03,4.07,9.54c0,11.78,0,36.05,0,85.29h22.72v-86.97
		c0-3.23-0.7-6.31-1.82-9.12C97.11,188.51,96.97,188.09,96.69,187.67z"/>
	<path id="XMLID_15_" class="st5" d="M295.74,193.28c-3.79-8-11.92-13.19-20.76-13.19h-41.8V285.3h22.58v-47.55h15.15
		c14.03,0,25.81-10.38,27.63-24.27c0.14-0.84,0.14-1.68,0.28-2.52C298.96,204.08,297.98,198.05,295.74,193.28z M256.32,227.08
		v-36.19c10.66-1.54,18.8,1.4,19.36,18.24C275.4,224.14,267.4,227.93,256.32,227.08z"/>
	<path id="XMLID_16_" class="st5" d="M348.62,277.86c-0.14,0-0.7,0-0.84-0.14c-6.73-0.84-10.8-4.77-12.2-12.2
		c-0.14-0.98-0.28-1.96-0.28-2.95l0.14-33.53H359h4.35l0,0h0.7v-14.31h-28.62v-14.17c0-4.21,2.67-8.14,6.59-9.54
		c0.14,0,0.28-0.14,0.42-0.14c1.12-0.42,2.24-0.56,3.37-0.56l20.2,0.14l0.14-11.78l-27.35,0.14c-16.83,0.56-25.95,7.43-26.37,21.32
		v61.16c0,4.49,0.98,9.12,2.81,13.19c0.84,1.82,1.68,3.51,2.38,4.63c4.35,6.87,10.38,9.26,17.39,9.54l2.67,0.14h31.42v-10.94
		L348.62,277.86L348.62,277.86z"/>
	<path id="XMLID_17_" class="st2" d="M421.28,288.24c-4.07,2.1-9.96,3.51-16.55,3.51c-8,0-15.01-1.96-18.8-5.05
		c-3.51-2.38-6.17-5.89-8.28-10.38c-1.54-3.51-2.81-7.72-3.51-12.48h21.46c0.28,1.26,0.56,2.52,0.84,3.65
		c0.42,1.54,1.12,2.81,1.82,3.93c1.54,2.1,3.51,3.51,6.31,3.93c1.26,0.14,2.38,0,3.65-0.28c2.38-0.7,4.35-1.68,5.75-3.09
		c3.37-3.37,4.07-8.56,1.54-14.73c-1.12-2.95-3.09-5.47-5.47-7.57c-15.15-12.62-31.98-24.83-33.81-41.24
		c-1.12-13.89,3.37-21.32,10.38-25.25c9.54-5.33,20.9-6.31,31.14-2.67c7.57,2.67,12.76,8.42,15.15,17.81
		c0.42,1.82,0.84,3.79,1.12,5.89h-21.18c-0.98-7.29-5.61-11.22-10.8-10.66c-2.1,0.28-4.07,1.26-5.33,2.95
		c-1.26,1.68-1.82,3.79-1.4,5.89c1.82,10.94,20.48,24.83,29.46,32.12c0.84,0.7,4.21,3.51,5.05,4.49
		C441.34,252.19,439.24,278.98,421.28,288.24z"/>
</g>
</svg>
