<?xml version="1.0" standalone="no"?>
<!DOCTYPE svg PUBLIC "-//W3C//DTD SVG 20010904//EN"
 "http://www.w3.org/TR/2001/REC-SVG-20010904/DTD/svg10.dtd">
<svg version="1.0" xmlns="http://www.w3.org/2000/svg"
 width="500.000000pt" height="500.000000pt" viewBox="0 0 500.000000 500.000000"
 preserveAspectRatio="xMidYMid meet">
<metadata>
Created by potrace 1.14, written by Peter Selinger 2001-2017
</metadata>
<g transform="translate(0.000000,500.000000) scale(0.100000,-0.100000)"
fill="#000000" stroke="none">
<path d="M0 2500 l0 -2500 2500 0 2500 0 0 2500 0 2500 -2500 0 -2500 0 0
-2500z m1783 990 c8 -8 184 -379 392 -825 208 -445 381 -813 385 -818 3 -4
147 364 320 818 172 454 318 829 324 833 18 12 659 14 689 3 21 -8 27 -17 27
-39 0 -45 -16 -52 -112 -52 l-88 0 0 -1085 0 -1085 110 0 c101 0 110 -2 121
-21 8 -16 8 -28 0 -45 l-11 -24 -462 2 -463 3 -3 28 c-6 48 11 57 104 57 l84
0 -1 988 c0 543 -4 978 -9 967 -4 -11 -179 -470 -388 -1020 -209 -550 -387
-1017 -395 -1037 -18 -43 -52 -51 -79 -20 -8 9 -232 484 -499 1054 -266 571
-487 1037 -492 1038 -4 0 -6 -442 -5 -982 l3 -983 149 -3 c156 -3 176 -8 176
-46 0 -45 -6 -46 -355 -46 -348 0 -355 1 -355 45 0 40 18 45 152 45 l128 0 0
1085 0 1085 -96 0 c-52 0 -103 4 -113 10 -37 20 -36 64 3 80 12 5 184 8 383 7
307 -2 364 -4 376 -17z"/>
<path d="M1369 3393 c5 -10 221 -472 481 -1028 260 -555 480 -1025 489 -1044
l18 -33 77 207 c69 183 77 210 67 234 -7 14 -186 398 -399 853 l-387 828 -178
0 c-166 0 -177 -1 -168 -17z"/>
<path d="M3300 2325 l0 -1085 160 0 160 0 0 1085 0 1085 -160 0 -160 0 0
-1085z"/>
</g>
</svg>
